<?xml version="1.0" encoding="UTF-8"?> <svg xmlns="http://www.w3.org/2000/svg" xmlns:xlink="http://www.w3.org/1999/xlink" version="1.1" id="Ebene_1" x="0px" y="0px" viewBox="0 0 402.6 95" style="enable-background:new 0 0 402.6 95;" xml:space="preserve"> <style type="text/css"> .st0{fill:#0E0E09;} </style> <path class="st0" d="M130.5,39.5c-0.3,0.4-0.5,0.7-0.8,0.9c-1.7,1.7-3.3,3.3-5,4.9c-1,1-1.1,1-2.1,0c-3.1-3-6.3-5.9-9.7-8.4 c-3.1-2.3-6.3-4.3-10-5.4c-4.3-1.4-8.7-1.4-12.9,0.4c-5.1,2.2-8.4,6-9.8,11.3c-1.7,6.3-0.2,12,4.4,16.6c5,5,11,6.1,17.7,4.2 c4.2-1.2,7.9-3.5,11.4-6.2c3.3-2.5,6.3-5.2,9.3-8.1c3.8-3.8,7.7-7.6,11.6-11.3c4.5-4.3,9.2-8.4,14.5-11.8c4.3-2.7,8.9-4.7,13.9-5.5 c8-1.2,15.3,0.7,21.6,5.8c5.8,4.7,9,10.8,9.8,18.1c0.7,7.1-1.2,13.6-5.6,19.3c-4.3,5.4-9.8,8.7-16.6,9.9c-5,0.9-9.9,0.3-14.6-1.4 c-5.3-1.9-9.9-4.8-14.2-8.3c-2.8-2.3-5.5-4.8-8.2-7.2c-0.1-0.1-0.2-0.2-0.4-0.4c-0.8-0.8-0.8-1.5,0-2.2c1.6-1.6,3.1-3.1,4.7-4.7 c0.1-0.1,0.2-0.2,0.4-0.4c0.7-0.6,0.8-0.6,1.5,0c1.7,1.6,3.5,3.2,5.2,4.7c3.7,3.2,7.6,6.2,12.1,8.3c3.9,1.8,7.9,2.6,12.2,1.7 c6.1-1.2,10.5-4.8,12.7-10.6c2.6-6.7,1.3-12.8-3.5-18.1c-3-3.3-6.9-5-11.4-5.3c-4.6-0.3-8.8,1.2-12.8,3.5c-3.5,2-6.7,4.5-9.7,7.2 c-5.4,4.7-10.2,9.8-15.4,14.8c-4,3.8-8.1,7.6-12.6,10.8c-5,3.6-10.4,6.4-16.6,7.5c-7.5,1.2-14.4-0.3-20.6-4.8S71.1,58.6,70.1,51 c-1-7.5,0.9-14.4,5.7-20.3c4.8-5.9,10.9-9.2,18.5-10c5-0.5,9.7,0.4,14.2,2.3c5.4,2.2,10.1,5.5,14.5,9.3c2.5,2.1,4.8,4.3,7.2,6.5 C130.2,39.1,130.3,39.3,130.5,39.5L130.5,39.5z"></path> <path class="st0" d="M52.3,55.2c0.3,0.4,0.4,0.7,0.7,0.9c3.7,4.1,7.3,8.2,11,12.3c1,1.1,1.9,2.2,2.9,3.3c0.2,0.3,0.4,0.8,0.3,1 s-0.6,0.4-1,0.4c-3.2,0-6.4,0-9.6,0c-0.7,0-1.2-0.3-1.6-0.8c-2.5-2.9-5-5.7-7.5-8.6c-1.9-2.2-3.9-4.4-5.8-6.7 c-0.5-0.6-1.1-0.9-1.9-0.9c-2.2,0-4.3,0-6.5,0c-1.2,0-1.4,0.2-1.4,1.5c0,4.3,0,8.6,0,13c0,0.4,0,0.8,0,1.2c0,1.1-0.2,1.3-1.3,1.3 c-2.5,0-4.9,0-7.4,0c-1.1,0-1.2-0.2-1.3-1.2c0-0.3,0-0.7,0-1c0-15.6,0-31.2,0-46.8c0-1.5,0.7-2.2,2.2-2.2c7.6,0,15.2,0,22.8,0 c3.3,0,6.4,0.7,9.3,2.3c4.9,2.7,7.7,6.8,8.5,12.3c0.5,3.2,0.1,6.3-1,9.3c-1.6,4.2-4.6,6.9-8.8,8.5C54,54.7,53.2,54.9,52.3,55.2 L52.3,55.2z M40.4,31.4L40.4,31.4c-1.3,0-2.5,0-3.8,0c-1.2,0-2.4,0-3.6,0c-1,0-1.1,0.2-1.2,1.2c0,0.5,0,1,0,1.4c0,3.9,0,7.9,0,11.8 c0,1.2,0.1,1.4,1.2,1.4c4.8,0,9.5,0.1,14.3,0c2.4-0.1,4.5-1,5.9-3c1.6-2.1,1.8-4.5,1.3-6.9c-0.7-3.4-3.6-5.7-7.2-5.8 C45,31.4,42.7,31.4,40.4,31.4L40.4,31.4z"></path> <path class="st0" d="M282.1,30.7c-2.5,1.3-4.9,2.6-7.4,3.7c-0.2,0.1-0.8-0.1-1-0.4c-3-3.5-6.9-4.9-11.4-4.9c-2.1,0-4.2,0.1-6.3,1 c-1.6,0.7-3,1.6-3.7,3.2c-1.2,2.6-0.4,5,2.1,6.4c2,1.1,4.1,1.5,6.3,1.8c3.4,0.5,6.9,0.8,10.2,1.8c2.2,0.6,4.3,1.3,6.2,2.5 c3.1,2,5.2,4.7,6,8.3c1,4.6,0.5,9.1-2.3,13c-2.1,2.9-5.1,4.8-8.5,5.9c-2.8,0.9-5.7,1.5-8.7,1.5c-3.7,0.1-7.4-0.1-11-1 c-5.7-1.6-10-4.9-12.5-10.3c-0.6-1.4-0.6-1.4,0.7-2.1c1.8-1,3.7-1.9,5.5-2.9c0.4-0.2,0.9-0.4,1.3-0.6c0.2,0.2,0.4,0.4,0.5,0.5 c2.1,4.1,5.6,6.2,9.9,7c3.5,0.7,6.9,0.6,10.3-0.5c1-0.3,1.9-0.8,2.8-1.4c3.1-2,4-7.6-0.4-10.1c-2.1-1.1-4.2-1.7-6.5-2 c-3.5-0.5-7-0.8-10.4-1.8c-3-0.9-5.8-2-8.1-4.2c-2.1-2-3.2-4.4-3.6-7.2c-0.3-2.5-0.3-5,0.6-7.4c1.3-3.4,3.7-5.7,6.8-7.4 c2.6-1.4,5.4-2.2,8.3-2.6c5-0.7,9.9-0.3,14.6,1.4c3.8,1.4,6.9,3.8,9,7.3C281.6,29.7,281.8,30.1,282.1,30.7L282.1,30.7z"></path> <path class="st0" d="M215.9,22c6.4,0,12.9,0,19.3,0c1.9,0,1.9,0,1.9,1.9s0,3.9,0,5.8c0,1.3-0.2,1.4-1.4,1.4c-4.2,0-8.3,0-12.5,0 c-0.3,0-0.7,0-1,0c-1,0.1-1.1,0.2-1.2,1.2c0,0.4,0,0.9,0,1.3c0,12.5,0,25,0,37.5c0,1.4-0.7,2.1-2.2,2.1c-2.1,0-4.2,0-6.3,0 c-1.4,0-1.6-0.1-1.6-1.6c0-6.2,0-12.4,0-18.6c0-6.6,0-13.2,0-19.9c0-0.2,0-0.4,0-0.6c0-1.4-0.1-1.5-1.5-1.5c-4.2,0-8.3,0-12.5,0 c-0.3,0-0.7,0-1,0c-1-0.1-1.3-0.2-1.3-1.2c0-2.2,0-4.4,0-6.6c0-1.1,0.2-1.3,1.5-1.3c4.5,0,9,0,13.5,0C211.7,22,213.8,22,215.9,22 L215.9,22z"></path> <g> <path class="st0" d="M298.8,22.2v11.5h4c2.1,0,3.5-1.3,3.5-3.1c0-1.3-0.8-2.5-2.1-2.8c1-0.4,1.7-1.3,1.7-2.5c0-1.8-1.3-3.1-3.5-3.1 L298.8,22.2L298.8,22.2z M300.5,27.3v-3.6h1.9c1.3,0,2.1,0.7,2.1,1.8s-0.8,1.9-2,1.9L300.5,27.3L300.5,27.3z M300.5,32.4v-3.7h2.3 c1.4,0,2.1,0.8,2.1,1.9c0,1.1-0.9,1.9-2.2,1.9C302.7,32.4,300.5,32.4,300.5,32.4z"></path> <path class="st0" d="M312.6,25.9c-0.1,0-0.3-0.1-0.5-0.1c-0.8,0-1.7,0.3-2.3,1.5V26h-1.5v7.8h1.5v-3.9c0-1.7,0.8-2.4,2.2-2.4 c0.2,0,0.4,0,0.7,0.1L312.6,25.9L312.6,25.9z"></path> <path class="st0" d="M313.8,31.6c0,1.3,1,2.3,2.6,2.3c1.4,0,2.2-0.7,2.5-1.3c0,0.5,0.1,0.8,0.1,1.1h1.5c-0.1-0.2-0.1-0.6-0.1-1.3 v-3.9c0-1.5-0.9-2.9-3.2-2.9c-1.7,0-3,1-3.2,2.5l1.4,0.4c0.1-0.9,0.7-1.6,1.7-1.6c1.2,0,1.7,0.7,1.7,1.4c0,0.3-0.1,0.5-0.6,0.6 l-2.1,0.3C314.8,29.5,313.8,30.3,313.8,31.6z M316.6,32.7c-0.8,0-1.3-0.5-1.3-1.1c0-0.7,0.5-1.1,1.1-1.1l2.4-0.4v0.4 C318.9,32.1,317.8,32.7,316.6,32.7z"></path> <path class="st0" d="M324.2,29.3c0-1.2,0.6-2.2,1.8-2.2c1.4,0,1.8,0.9,1.8,2v4.7h1.5v-5c0-1.7-0.9-3.1-2.8-3.1 c-0.9,0-1.8,0.4-2.4,1.3v-1.1h-1.5v7.8h1.5L324.2,29.3L324.2,29.3z"></path> <path class="st0" d="M332.7,29.9c0-1.6,0.9-2.8,2.3-2.8s2.2,1.1,2.2,2.7s-0.8,2.8-2.2,2.8C333.5,32.6,332.7,31.5,332.7,29.9z M337.3,32.7c0,0.5,0.1,0.9,0.1,1.1h1.5c0-0.1-0.1-0.7-0.1-1.4V22h-1.5v5c-0.2-0.7-1-1.3-2.4-1.3c-2.2,0-3.7,1.9-3.7,4.1 c0,2.3,1.4,4.1,3.7,4.1c1.2,0,2-0.7,2.4-1.4V32.7z"></path> <path class="st0" d="M305.8,44.9c-0.2-1.3-1.3-2.9-3.9-2.9c-2.1,0-3.8,1.6-3.8,3.4c0,1.7,1.1,2.8,2.8,3.1l1.6,0.4 c1.1,0.2,1.7,1,1.7,1.8c0,1-0.8,1.9-2.3,1.9c-1.7,0-2.6-1.2-2.8-2.5l-1.5,0.5c0.2,1.6,1.5,3.4,4.3,3.4c2.5,0,4-1.6,4-3.4 c0-1.6-1.1-2.8-3-3.2l-1.7-0.4c-1-0.2-1.5-0.8-1.5-1.7c0-1.1,0.9-1.9,2.2-1.9c1.6,0,2.3,1.1,2.4,2L305.8,44.9z"></path> <path class="st0" d="M309.9,43.5h-1.4v1.3c0,0.7-0.4,1.2-1.2,1.2h-0.4v1.4h1.5v4.3c0,1.4,0.8,2.2,2.2,2.2c0.5,0,0.9-0.1,1-0.1v-1.3 c-0.1,0.1-0.4,0.1-0.6,0.1c-0.8,0-1.1-0.4-1.1-1.1v-4.1h1.7v-1.4h-1.7V43.5L309.9,43.5z"></path> <path class="st0" d="M317.7,45.9c-0.1,0-0.3-0.1-0.5-0.1c-0.8,0-1.7,0.3-2.3,1.5V46h-1.5v7.8h1.5v-3.9c0-1.7,0.8-2.4,2.2-2.4 c0.2,0,0.4,0,0.7,0.1V45.9L317.7,45.9z"></path> <path class="st0" d="M318.9,51.7c0,1.3,1,2.3,2.6,2.3c1.4,0,2.2-0.7,2.5-1.3c0,0.5,0.1,0.8,0.1,1.1h1.5c-0.1-0.2-0.1-0.6-0.1-1.3 v-3.9c0-1.5-0.9-2.9-3.2-2.9c-1.7,0-3,1-3.2,2.5l1.4,0.4c0.1-0.9,0.7-1.6,1.7-1.6c1.2,0,1.7,0.7,1.7,1.4c0,0.3-0.1,0.5-0.6,0.6 l-2.1,0.3C319.9,49.5,318.9,50.3,318.9,51.7z M321.7,52.8c-0.8,0-1.3-0.5-1.3-1.1c0-0.7,0.5-1.1,1.1-1.1l2.4-0.4v0.4 C323.9,52.2,322.9,52.8,321.7,52.8z"></path> <path class="st0" d="M329.8,43.5h-1.4v1.3c0,0.7-0.4,1.2-1.2,1.2h-0.4v1.4h1.5v4.3c0,1.4,0.8,2.2,2.2,2.2c0.5,0,0.9-0.1,1-0.1v-1.3 c-0.1,0.1-0.4,0.1-0.6,0.1c-0.8,0-1.1-0.4-1.1-1.1v-4.1h1.7v-1.4h-1.7V43.5L329.8,43.5z"></path> <path class="st0" d="M334.4,49.1c0.1-1,0.8-2,2.1-2c1.4,0,2.1,0.9,2.2,2H334.4z M338.9,51.1c-0.3,0.9-0.9,1.6-2.2,1.6 c-1.3,0-2.3-1-2.3-2.3h5.9c0-0.1,0.1-0.3,0.1-0.5c0-2.5-1.3-4.1-3.7-4.1c-2,0-3.7,1.7-3.7,4.1c0,2.6,1.8,4.2,3.9,4.2 c1.8,0,3.1-1.1,3.5-2.5L338.9,51.1z"></path> <path class="st0" d="M341.6,54.2c0.2,1.7,1.6,2.9,3.6,2.9c2.9,0,3.9-1.9,3.9-3.9V46h-1.5v1.1c-0.4-0.8-1.2-1.3-2.4-1.3 c-2.2,0-3.6,1.7-3.6,3.8c0,2.2,1.5,3.8,3.6,3.8c1.1,0,2-0.5,2.4-1.3v1.1c0,1.7-0.7,2.5-2.4,2.5c-1.2,0-2-0.8-2.1-1.9L341.6,54.2z M345.5,52.2c-1.4,0-2.2-1-2.2-2.5c0-1.5,0.9-2.5,2.2-2.5c1.3,0,2.2,1,2.2,2.5S346.8,52.2,345.5,52.2z"></path> <path class="st0" d="M353.4,57.1l5-11h-1.6l-2.3,5.4l-2.4-5.4h-1.7l3.4,7l-1.9,4.1L353.4,57.1L353.4,57.1z"></path> <path class="st0" d="M302.6,73.5c2.6,0,4.4-1.6,5-3.7l-1.4-0.5c-0.5,1.6-1.7,2.8-3.7,2.8c-2.1,0-4.1-1.6-4.1-4.6c0-3,2-4.5,4.1-4.5 c1.9,0,3.1,1,3.6,2.7l1.5-0.5c-0.6-2.2-2.4-3.7-5-3.7c-2.8,0-5.7,2.2-5.7,6C296.9,71.3,299.7,73.5,302.6,73.5z"></path> <path class="st0" d="M312.6,72.1c-1.3,0-2.4-1-2.4-2.8c0-1.8,1.1-2.8,2.4-2.8c1.3,0,2.4,1,2.4,2.8 C315.1,71.1,313.9,72.1,312.6,72.1z M312.6,65.2c-2.3,0-4,1.7-4,4.1s1.6,4.1,4,4.1s4-1.7,4-4.1C316.6,66.9,315,65.2,312.6,65.2z"></path> <path class="st0" d="M320.1,68.7c0-1.2,0.6-2.2,1.8-2.2c1.4,0,1.8,0.9,1.8,2v4.7h1.5v-5c0-1.7-0.9-3.1-2.8-3.1 c-0.9,0-1.8,0.4-2.4,1.3v-1.1h-1.5v7.8h1.5L320.1,68.7L320.1,68.7z"></path> <path class="st0" d="M326.9,71.2c0.1,0.9,1,2.3,3.2,2.3c1.9,0,2.8-1.3,2.8-2.4c0-1.1-0.7-2-2.2-2.3l-1.3-0.3 c-0.6-0.1-0.9-0.5-0.9-1c0-0.5,0.5-1,1.3-1c1.2,0,1.6,0.9,1.6,1.3l1.3-0.5c-0.2-0.7-0.8-2.1-2.9-2.1c-1.5,0-2.8,1.1-2.8,2.5 c0,1.1,0.7,1.9,1.9,2.2l1.3,0.3c0.7,0.1,1,0.5,1,1c0,0.5-0.5,1-1.3,1c-1.1,0-1.7-0.7-1.8-1.4L326.9,71.2z"></path> <path class="st0" d="M340,72.3c0,0.3,0.1,0.8,0.1,1h1.4c-0.1-0.3-0.1-0.8-0.1-1.4v-6.4h-1.5v4.7c0,1.2-0.6,2-1.9,2 c-1.3,0-1.7-1-1.7-2v-4.7h-1.5v4.9c0,1.7,1.1,3.1,2.9,3.1C338.6,73.5,339.5,73.1,340,72.3z"></path> <path class="st0" d="M345.5,73.2V61.5H344v11.7H345.5z"></path> <path class="st0" d="M350.1,63h-1.4v1.3c0,0.7-0.4,1.2-1.2,1.2h-0.4v1.4h1.5v4.3c0,1.4,0.8,2.2,2.2,2.2c0.5,0,0.9-0.1,1-0.1v-1.3 c-0.1,0.1-0.4,0.1-0.6,0.1c-0.8,0-1.1-0.4-1.1-1.1v-4.1h1.7v-1.4h-1.7L350.1,63L350.1,63z"></path> <path class="st0" d="M353.3,71.1c0,1.3,1,2.3,2.6,2.3c1.4,0,2.2-0.7,2.5-1.3c0,0.5,0.1,0.8,0.1,1.1h1.5c-0.1-0.2-0.1-0.6-0.1-1.3 v-3.9c0-1.5-0.9-2.9-3.2-2.9c-1.7,0-3,1-3.2,2.5l1.4,0.4c0.1-0.9,0.7-1.6,1.7-1.6c1.2,0,1.7,0.7,1.7,1.4c0,0.3-0.1,0.5-0.6,0.6 l-2.1,0.3C354.3,69,353.3,69.7,353.3,71.1z M356.1,72.2c-0.8,0-1.3-0.5-1.3-1.1c0-0.7,0.5-1.1,1.1-1.1l2.4-0.4v0.4 C358.4,71.6,357.4,72.2,356.1,72.2z"></path> <path class="st0" d="M363.8,68.7c0-1.2,0.6-2.2,1.8-2.2c1.4,0,1.8,0.9,1.8,2v4.7h1.5v-5c0-1.7-0.9-3.1-2.8-3.1 c-0.9,0-1.8,0.4-2.4,1.3v-1.1h-1.5v7.8h1.5L363.8,68.7L363.8,68.7z"></path> <path class="st0" d="M373.4,63H372v1.3c0,0.7-0.4,1.2-1.2,1.2h-0.4v1.4h1.5v4.3c0,1.4,0.8,2.2,2.2,2.2c0.5,0,0.9-0.1,1-0.1v-1.3 c-0.1,0.1-0.4,0.1-0.6,0.1c-0.8,0-1.1-0.4-1.1-1.1v-4.1h1.7v-1.4h-1.7V63L373.4,63z"></path> <path class="st0" d="M376.5,71.2c0.1,0.9,1,2.3,3.2,2.3c1.9,0,2.8-1.3,2.8-2.4c0-1.1-0.7-2-2.2-2.3l-1.3-0.3 c-0.6-0.1-0.9-0.5-0.9-1c0-0.5,0.5-1,1.3-1c1.2,0,1.6,0.9,1.6,1.3l1.3-0.5c-0.2-0.7-0.8-2.1-2.9-2.1c-1.5,0-2.8,1.1-2.8,2.5 c0,1.1,0.7,1.9,1.9,2.2l1.3,0.3c0.7,0.1,1,0.5,1,1c0,0.5-0.5,1-1.3,1c-1.1,0-1.7-0.7-1.8-1.4L376.5,71.2z"></path> </g> </svg> 